<?xml version="1.0" standalone="no"?>
<!DOCTYPE svg PUBLIC "-//W3C//DTD SVG 20010904//EN"
 "http://www.w3.org/TR/2001/REC-SVG-20010904/DTD/svg10.dtd">
<svg version="1.0" xmlns="http://www.w3.org/2000/svg"
 width="2048.000000pt" height="2048.000000pt" viewBox="0 0 2048.000000 2048.000000"
 preserveAspectRatio="xMidYMid meet">
<metadata>
Created by potrace 1.14, written by Peter Selinger 2001-2017
</metadata>
<g transform="translate(0.000000,2048.000000) scale(0.100000,-0.100000)"
fill="#000000" stroke="none">
<path d="M4575 18792 l-4570 -1687 -3 -8553 -2 -8552 5679 0 c5025 0 5683 2
5714 15 46 19 61 19 53 0 -5 -13 298 -15 2687 -15 l2692 0 95 243 94 242 221
884 220 884 104 38 c57 22 107 39 111 39 12 0 -103 -720 -206 -1285 -52 -286
-189 -991 -200 -1028 -5 -16 32 -17 722 -15 l727 3 29 105 c106 388 344 1242
480 1720 88 311 197 707 242 880 l82 314 465 172 464 171 3 8557 2 8556 -5667
0 -5668 -1 -4570 -1687z m-2890 -2907 c55 -7 141 -23 190 -35 510 -117 1180
-513 1654 -975 179 -175 289 -300 598 -687 145 -179 309 -377 366 -440 312
-341 616 -527 1036 -633 193 -48 277 -59 466 -59 162 0 191 2 285 26 200 51
392 139 600 275 211 139 402 293 805 649 484 428 697 598 932 745 300 188 559
290 848 335 143 22 424 15 561 -14 286 -61 516 -167 869 -401 533 -352 849
-681 1062 -1106 46 -90 278 -613 372 -836 l62 -146 -211 -678 -211 -678 26
-304 c27 -334 30 -433 15 -568 -14 -120 -19 -135 -41 -135 -10 0 -62 -16 -116
-35 -294 -105 -526 -345 -744 -770 -99 -192 -165 -341 -361 -820 -239 -581
-336 -792 -494 -1066 -163 -285 -331 -508 -538 -714 -374 -372 -835 -617
-1361 -721 -70 -15 -137 -18 -305 -18 -204 0 -219 2 -303 27 -162 50 -285 125
-516 317 -159 132 -198 161 -359 269 -211 141 -380 239 -597 346 -387 191
-677 278 -1026 306 -247 20 -463 -8 -884 -116 -290 -74 -423 -100 -592 -115
-493 -44 -1006 168 -1561 645 -344 296 -574 725 -717 1339 -166 716 -190 1375
-69 1865 33 133 118 365 151 414 34 50 106 101 170 122 75 24 192 18 258 -15
159 -77 230 -270 159 -435 -106 -245 -133 -384 -141 -707 -7 -319 17 -578 88
-933 84 -424 199 -729 356 -947 151 -210 519 -488 798 -603 149 -62 232 -79
385 -78 157 0 237 14 585 103 433 111 608 134 940 127 340 -8 603 -57 937
-175 469 -166 1077 -513 1478 -843 304 -250 310 -253 470 -252 137 1 295 33
465 95 571 209 960 605 1311 1333 98 203 103 214 305 708 87 213 166 402 175
418 8 17 14 33 12 35 -2 2 -96 -108 -209 -244 -246 -298 -332 -396 -458 -525
-443 -455 -886 -669 -1526 -738 -163 -18 -758 -18 -885 -1 -398 55 -643 144
-1347 495 -292 145 -529 246 -678 287 -109 31 -145 25 -425 -69 -358 -121
-496 -149 -655 -136 -328 29 -553 245 -657 633 -32 118 -36 348 -9 469 68 309
265 565 554 718 461 246 953 103 1128 -326 81 -197 25 -372 -146 -459 -61 -31
-76 -35 -149 -35 -68 0 -90 4 -136 27 -84 41 -144 108 -180 198 -17 43 -26 50
-65 50 -83 -1 -222 -80 -281 -161 -58 -79 -77 -135 -77 -219 0 -73 29 -186 56
-219 21 -25 123 -3 395 88 323 108 398 125 557 125 104 0 136 -5 235 -32 247
-68 447 -150 840 -347 755 -378 946 -435 1450 -435 687 0 1025 104 1396 431
130 114 241 238 558 619 441 531 562 658 1094 1145 382 350 481 435 574 490
87 52 208 99 281 110 26 4 47 11 47 16 0 12 -157 114 -261 168 -52 27 -132 62
-179 77 -247 80 -552 -11 -976 -291 -283 -186 -483 -344 -1084 -855 -665 -565
-905 -731 -1215 -837 -175 -60 -448 -112 -795 -153 -532 -63 -896 36 -1310
359 -47 36 -223 202 -393 369 -407 400 -583 539 -744 583 -166 47 -415 87
-585 96 -115 6 -117 6 -147 -20 -86 -72 -243 -87 -349 -33 -222 113 -249 407
-54 588 74 68 172 111 292 129 205 29 625 -16 981 -106 137 -35 196 -59 305
-121 226 -131 365 -246 729 -604 368 -362 465 -442 639 -520 199 -90 413 -91
921 -5 406 69 557 159 1235 735 693 588 927 772 1243 976 386 249 737 385
1052 407 39 3 37 4 -88 65 -234 113 -491 195 -717 228 -158 22 -442 15 -585
-16 -302 -64 -567 -188 -1085 -508 -560 -346 -819 -489 -1085 -600 -415 -174
-831 -262 -1240 -262 -192 0 -295 16 -460 71 -221 75 -394 175 -790 458 -126
90 -265 188 -310 216 -165 107 -845 441 -1231 605 -144 62 -285 106 -401 125
l-102 17 -46 -32 c-69 -48 -124 -63 -213 -58 -130 6 -227 69 -284 186 -30 60
-33 75 -33 157 0 79 4 97 28 148 127 257 515 330 999 186 233 -69 743 -297
1249 -557 316 -163 438 -238 722 -444 397 -288 569 -381 760 -407 150 -21 484
16 724 79 377 100 627 225 1383 692 622 384 961 530 1400 605 150 25 561 25
710 0 445 -76 903 -255 1336 -522 57 -36 104 -62 104 -60 0 14 -278 631 -317
705 -131 245 -330 464 -608 670 -156 116 -384 261 -511 326 -200 100 -336 136
-522 135 -186 0 -334 -38 -537 -136 -258 -126 -471 -288 -1050 -800 -591 -523
-878 -733 -1228 -900 -363 -173 -710 -239 -1082 -205 -335 31 -713 139 -1010
290 -263 133 -479 295 -706 528 -158 161 -208 220 -526 617 -385 480 -561 659
-868 882 -331 240 -660 409 -940 485 -159 42 -336 50 -453 18 -221 -60 -339
-224 -416 -575 -14 -66 -42 -221 -61 -345 -20 -124 -45 -274 -55 -334 -11 -60
-20 -148 -20 -195 0 -74 -4 -95 -29 -146 -74 -157 -243 -229 -407 -175 -56 19
-80 34 -127 81 -80 80 -100 129 -105 256 -4 85 2 137 32 310 20 115 52 305 71
423 72 445 156 693 305 902 71 100 197 225 289 287 138 94 335 167 511 190
104 14 287 12 395 -4z"/>
</g>
</svg>
